<svg width="24" height="24" viewBox="0 0 24 24" fill="none" xmlns="http://www.w3.org/2000/svg">
<path d="M9.7832 15.2022V12.45C9.7832 11.8977 9.33549 11.45 8.7832 11.45C8.23092 11.45 7.7832 11.8977 7.7832 12.45V15.2022C7.7832 15.7545 8.23092 16.2022 8.7832 16.2022C9.33549 16.2022 9.7832 15.7545 9.7832 15.2022Z" fill="#0D0D0D"/>
<path d="M16.2666 15.2022V12.45C16.2666 11.8977 15.8189 11.45 15.2666 11.45C14.7143 11.45 14.2666 11.8977 14.2666 12.45V15.2022C14.2666 15.7545 14.7143 16.2022 15.2666 16.2022C15.8189 16.2022 16.2666 15.7545 16.2666 15.2022Z" fill="#0D0D0D"/>
<path fill-rule="evenodd" clip-rule="evenodd" d="M12.0008 0.973633C10.6172 0.973633 9.49558 2.09527 9.49558 3.47888C9.49558 4.50705 10.115 5.39055 11.0009 5.77664L11 7.5H3.25V19C3.25 20.3807 4.36929 21.5 5.75 21.5H18.25C19.6307 21.5 20.75 20.3807 20.75 19V10C20.75 8.61929 19.6307 7.5 18.25 7.5H13L13.0009 5.77653C13.8868 5.3904 14.5061 4.50696 14.5061 3.47888C14.5061 2.09527 13.3844 0.973633 12.0008 0.973633ZM5.25 9.5V19C5.25 19.2761 5.47386 19.5 5.75 19.5H18.25C18.5261 19.5 18.75 19.2761 18.75 19V10C18.75 9.72386 18.5261 9.5 18.25 9.5H5.25Z" fill="#0D0D0D"/>
<path d="M0.250977 16.5788V10.5789H2.25098L2.25098 16.5788H0.250977Z" fill="#0D0D0D"/>
<path d="M21.7511 10.5789V16.5788H23.7511V10.5789H21.7511Z" fill="#0D0D0D"/>
</svg>
