<svg width="24" height="24" viewBox="0 0 24 24" fill="none" xmlns="http://www.w3.org/2000/svg">
<path d="M12 0.996094C9.65279 0.996094 7.75 2.89888 7.75 5.24609V11.7461C7.75 14.0933 9.65279 15.9961 12 15.9961C14.3472 15.9961 16.25 14.0933 16.25 11.7461V5.24609C16.25 2.89888 14.3472 0.996094 12 0.996094Z" fill="#0D0D0D"/>
<path d="M17.5 12C17.5 15.0376 15.0376 17.5 12 17.5C8.96243 17.5 6.5 15.0376 6.5 12H4.5C4.5 15.8031 7.33064 18.945 11 19.4339V21H8V23H16V21H13V19.4339C16.6694 18.945 19.5 15.8031 19.5 12H17.5Z" fill="#0D0D0D"/>
</svg>
