<svg width="34" height="34" viewBox="0 0 34 34" fill="none" xmlns="http://www.w3.org/2000/svg">
  <path fill-rule="evenodd" clip-rule="evenodd" d="M4.29395 8.2189C4.29395 6.05567 6.05543 4.29419 8.21865 4.29419H25.781C27.9442 4.29419 29.7057 6.05567 29.7057 8.2189V28.3083C29.7057 28.8044 29.4453 29.2642 29.0197 29.5192C28.5942 29.7743 28.066 29.7872 27.6284 29.5534L23.2391 27.2071H8.21865C6.05543 27.2071 4.29395 25.4457 4.29395 23.2824V8.2189ZM8.21865 7.11772C7.61482 7.11772 7.11747 7.61506 7.11747 8.2189V23.2824C7.11747 23.8863 7.61482 24.3836 8.21865 24.3836H23.5928C23.8249 24.3836 24.0535 24.4409 24.2583 24.5503L26.8822 25.9529V8.2189C26.8822 7.61506 26.3848 7.11772 25.781 7.11772H8.21865Z" fill="white"/>
  <path fill-rule="evenodd" clip-rule="evenodd" d="M10.3568 17.4113C10.9094 16.8613 11.8033 16.8633 12.3534 17.4159C14.8638 19.9379 18.9517 19.9412 21.4792 17.4136C22.0306 16.8623 22.9245 16.8623 23.4758 17.4136C24.0271 17.9649 24.0271 18.8588 23.4758 19.4102C19.8481 23.0379 13.9689 23.0412 10.3522 19.4079C9.80218 18.8553 9.80424 17.9614 10.3568 17.4113Z" fill="white"/>
  <path fill-rule="evenodd" clip-rule="evenodd" d="M14.1763 9.94128C14.956 9.94128 15.5881 10.5734 15.5881 11.353V12.7648C15.5881 13.5445 14.956 14.1766 14.1763 14.1766C13.3966 14.1766 12.7645 13.5445 12.7645 12.7648V11.353C12.7645 10.5734 13.3966 9.94128 14.1763 9.94128Z" fill="white"/>
  <path fill-rule="evenodd" clip-rule="evenodd" d="M19.8234 9.94128C20.6031 9.94128 21.2352 10.5734 21.2352 11.353V12.7648C21.2352 13.5445 20.6031 14.1766 19.8234 14.1766C19.0437 14.1766 18.4116 13.5445 18.4116 12.7648V11.353C18.4116 10.5734 19.0437 9.94128 19.8234 9.94128Z" fill="white"/>
</svg>
