<svg width="44" height="44" viewBox="0 0 44 44" fill="none" xmlns="http://www.w3.org/2000/svg">
<g id="Avatar">
<circle id="Image" cx="22" cy="22" r="22" fill="#30308F"/>
<g id="icon_transfer" clip-path="url(#clip0_960_67548)">
<g id="Group">
<path id="Vector (Stroke)" fill-rule="evenodd" clip-rule="evenodd" d="M25.4988 14.0418C25.9016 13.6391 26.5545 13.6391 26.9572 14.0418L29.9479 17.0324C30.3506 17.4351 30.3506 18.0881 29.9479 18.4908L26.9572 21.4815C26.5545 21.8842 25.9016 21.8842 25.4988 21.4815C25.0961 21.0787 25.0961 20.4258 25.4988 20.023L27.7602 17.7616L25.4988 15.5002C25.0961 15.0975 25.0961 14.4445 25.4988 14.0418Z" fill="white"/>
<path id="Vector (Stroke)_2" fill-rule="evenodd" clip-rule="evenodd" d="M13.75 17.772C13.75 17.2024 14.2117 16.7407 14.7812 16.7407H29.2188C29.7883 16.7407 30.25 17.2024 30.25 17.772C30.25 18.3415 29.7883 18.8032 29.2188 18.8032H14.7812C14.2117 18.8032 13.75 18.3415 13.75 17.772Z" fill="white"/>
<path id="Vector (Stroke)_3" fill-rule="evenodd" clip-rule="evenodd" d="M18.5011 22.5186C18.9038 22.9213 18.9038 23.5743 18.5011 23.977L16.2397 26.2384L18.5011 28.4998C18.9038 28.9026 18.9038 29.5555 18.5011 29.9583C18.0984 30.361 17.4454 30.361 17.0427 29.9583L14.052 26.9676C13.8586 26.7742 13.75 26.5119 13.75 26.2384C13.75 25.9649 13.8586 25.7026 14.052 25.5092L17.0427 22.5186C17.4454 22.1159 18.0984 22.1159 18.5011 22.5186Z" fill="white"/>
<path id="Vector (Stroke)_4" fill-rule="evenodd" clip-rule="evenodd" d="M13.75 26.2283C13.75 25.6587 14.2117 25.197 14.7812 25.197H29.2188C29.7883 25.197 30.25 25.6587 30.25 26.2283C30.25 26.7978 29.7883 27.2595 29.2188 27.2595H14.7812C14.2117 27.2595 13.75 26.7978 13.75 26.2283Z" fill="white"/>
</g>
</g>
</g>
<defs>
<clipPath id="clip0_960_67548">
<rect width="24.75" height="24.75" fill="white" transform="translate(9.625 9.625)"/>
</clipPath>
</defs>
</svg>
