<svg width="60" height="60" viewBox="0 0 60 60" fill="none" xmlns="http://www.w3.org/2000/svg">
<path d="M41.6067 29.9477L44.4332 30.2831L41.6067 30.6184C34.2718 31.4888 28.4888 37.2718 27.6184 44.6067L27.2831 47.4332L26.9477 44.6067C26.0774 37.2718 20.2943 31.4888 12.9593 30.6184L10.1329 30.2831L12.9593 29.9477C20.2943 29.0774 26.0774 23.2943 26.9477 15.9593L27.2831 13.1329L27.6184 15.9593C28.4888 23.2943 34.2718 29.0774 41.6067 29.9477Z" stroke="white" stroke-width="1.7"/>
<path d="M47.9717 29.9477L50.7982 30.2831L47.9717 30.6184C40.6368 31.4888 34.8537 37.2718 33.9834 44.6067L33.6481 47.4332L33.3127 44.6067C32.4424 37.2718 26.6593 31.4888 19.3243 30.6184L16.4979 30.2831L19.3243 29.9477C26.6593 29.0774 32.4424 23.2943 33.3127 15.9593L33.6481 13.1329L33.9834 15.9593C34.8537 23.2943 40.6368 29.0774 47.9717 29.9477Z" stroke="white" stroke-width="1.7"/>
</svg>
