<svg width="16" height="16" viewBox="0 0 16 16" fill="none" xmlns="http://www.w3.org/2000/svg">
<g id="metadata">
<g id="Fill">
<path d="M0.666626 7.33317V8.7041H1.33329C1.39843 8.7041 1.46284 8.70099 1.52639 8.6949C1.80042 8.77769 1.99996 9.03213 1.99996 9.33317V12.7041C1.99996 13.6246 2.74615 14.3708 3.66663 14.3708H5.33329V13.0374H3.66663C3.48253 13.0374 3.33329 12.8882 3.33329 12.7041V9.33317C3.33329 8.82995 3.14745 8.37015 2.84064 8.01864C3.14745 7.66713 3.33329 7.20732 3.33329 6.7041V3.33317C3.33329 3.14908 3.48253 2.99984 3.66663 2.99984H5.33329V1.6665H3.66663C2.74615 1.6665 1.99996 2.4127 1.99996 3.33317V6.7041C1.99996 7.00514 1.80042 7.25958 1.52639 7.34237C1.46285 7.33629 1.39843 7.33317 1.33329 7.33317H0.666626Z" fill="#0D0D0D"/>
<path d="M14 6.7041C14 7.00514 14.1995 7.25958 14.4735 7.34237C14.5371 7.33629 14.6015 7.33317 14.6666 7.33317H15.3333V8.7041H14.6666C14.6015 8.7041 14.5371 8.70099 14.4735 8.6949C14.1995 8.77769 14 9.03213 14 9.33317V12.7041C14 13.6246 13.2538 14.3708 12.3333 14.3708H11V13.0374H12.3333C12.5174 13.0374 12.6666 12.8882 12.6666 12.7041V9.33317C12.6666 8.82995 12.8525 8.37015 13.1593 8.01864C12.8525 7.66713 12.6666 7.20732 12.6666 6.7041V3.33317C12.6666 3.14908 12.5174 2.99984 12.3333 2.99984H10.6666V1.6665H12.3333C13.2538 1.6665 14 2.4127 14 3.33317V6.7041Z" fill="#0D0D0D"/>
<path d="M7.99996 8.6665C8.36815 8.6665 8.66663 8.36803 8.66663 7.99984C8.66663 7.63165 8.36815 7.33317 7.99996 7.33317C7.63177 7.33317 7.33329 7.63165 7.33329 7.99984C7.33329 8.36803 7.63177 8.6665 7.99996 8.6665Z" fill="#0D0D0D"/>
<path d="M11.3333 7.99984C11.3333 8.36803 11.0348 8.6665 10.6666 8.6665C10.2984 8.6665 9.99996 8.36803 9.99996 7.99984C9.99996 7.63165 10.2984 7.33317 10.6666 7.33317C11.0348 7.33317 11.3333 7.63165 11.3333 7.99984Z" fill="#0D0D0D"/>
<path d="M5.33329 8.6665C5.70148 8.6665 5.99996 8.36803 5.99996 7.99984C5.99996 7.63165 5.70148 7.33317 5.33329 7.33317C4.9651 7.33317 4.66663 7.63165 4.66663 7.99984C4.66663 8.36803 4.9651 8.6665 5.33329 8.6665Z" fill="#0D0D0D"/>
</g>
</g>
</svg>
