<svg width="24" height="24" viewBox="0 0 24 24" fill="none" xmlns="http://www.w3.org/2000/svg">
<path fill-rule="evenodd" clip-rule="evenodd" d="M19.7071 4.29289C20.0676 4.65338 20.0953 5.22061 19.7903 5.6129L19.7071 5.70711L13.414 11.9999L19.7071 18.2929C20.0976 18.6834 20.0976 19.3166 19.7071 19.7071C19.3466 20.0676 18.7794 20.0953 18.3871 19.7903L18.2929 19.7071L11.9999 13.414L5.70711 19.7071C5.31658 20.0976 4.68342 20.0976 4.29289 19.7071C3.93241 19.3466 3.90468 18.7794 4.2097 18.3871L4.29289 18.2929L10.5858 11.9999L4.29289 5.70711C3.90237 5.31658 3.90237 4.68342 4.29289 4.29289C4.65338 3.93241 5.22061 3.90468 5.6129 4.2097L5.70711 4.29289L11.9999 10.5858L18.2929 4.29289C18.6834 3.90237 19.3166 3.90237 19.7071 4.29289Z" fill="#30308F"/>
</svg>
