<svg width="12" height="12" viewBox="0 0 12 12" fill="none" xmlns="http://www.w3.org/2000/svg">
    <path fill-rule="evenodd" clip-rule="evenodd" d="M6 0.333008C5.44772 0.333008 5 0.780723 5 1.33301C5 1.70315 5.2011 2.02632 5.5 2.19923V3.33301H1.5V9.08301C1.5 9.77336 2.05964 10.333 2.75 10.333H9.25C9.94036 10.333 10.5 9.77336 10.5 9.08301V4.58301C10.5 3.89265 9.94036 3.33301 9.25 3.33301H6.5V2.19923C6.7989 2.02632 7 1.70315 7 1.33301C7 0.780723 6.55228 0.333008 6 0.333008ZM4.25 5.08301C3.69772 5.08301 3.25 5.53072 3.25 6.08301C3.25 6.63529 3.69772 7.08301 4.25 7.08301C4.80228 7.08301 5.25 6.63529 5.25 6.08301C5.25 5.53072 4.80228 5.08301 4.25 5.08301ZM6.75 6.08301C6.75 5.53072 7.19772 5.08301 7.75 5.08301C8.30228 5.08301 8.75 5.53072 8.75 6.08301C8.75 6.63529 8.30228 7.08301 7.75 7.08301C7.19772 7.08301 6.75 6.63529 6.75 6.08301Z" fill="black" fill-opacity="0.5"/>
    <path d="M0 4.83301V7.83301H1L1 4.83301H0Z" fill="black" fill-opacity="0.5"/>
    <path d="M11 4.83301V7.83301H12V4.83301H11Z" fill="black" fill-opacity="0.5"/>
</svg>
