<svg width="44" height="44" viewBox="0 0 44 44" fill="none" xmlns="http://www.w3.org/2000/svg">
<g id="Avatar">
<circle id="Image" cx="22" cy="22" r="22" fill="#30308F"/>
<g id="icon_wallet">
<g id="Group">
<g id="Group_2">
<path id="Vector (Stroke)" fill-rule="evenodd" clip-rule="evenodd" d="M25.0833 13.1795L15.6295 16.7509H25.0834V13.1828C25.0834 13.1813 25.0834 13.1802 25.0833 13.1795C25.0833 13.1795 25.0833 13.1795 25.0833 13.1795ZM27.1459 16.7509V13.1828C27.1459 11.7561 25.7169 10.7286 24.3557 11.2496C24.3545 11.25 24.3534 11.2504 24.3523 11.2509L13.6856 15.2805C13.6854 15.2806 13.6852 15.2806 13.6851 15.2807C12.4883 15.7317 11.6875 16.8902 11.6875 18.174V29.2187C11.6875 30.9226 13.0773 32.3124 14.7812 32.3124H29.2188C30.9227 32.3124 32.3125 30.9226 32.3125 29.2187V19.8446C32.3125 18.1407 30.9227 16.7509 29.2188 16.7509H27.1459ZM25.9683 18.8134C26.0161 18.8202 26.065 18.8237 26.1147 18.8237C26.1644 18.8237 26.2133 18.8202 26.2611 18.8134H29.2188C29.7836 18.8134 30.25 19.2798 30.25 19.8446V29.2187C30.25 29.7835 29.7836 30.2499 29.2188 30.2499H14.7812C14.2164 30.2499 13.75 29.7835 13.75 29.2187V18.8134H25.9683ZM24.7225 12.2134L24.7225 12.2135L24.7225 12.2134Z" fill="white"/>
<path id="Shape 3077 (Stroke)" fill-rule="evenodd" clip-rule="evenodd" d="M25.8591 23.1792C25.944 23.1566 26.0332 23.1445 26.1252 23.1445C26.9113 23.1445 27.5483 23.7816 27.5483 24.5677C27.5483 25.3174 26.9573 25.9908 26.1355 25.9908C25.3858 25.9908 24.7124 25.3997 24.7124 24.578C24.7124 23.9119 25.1788 23.3061 25.8591 23.1792Z" fill="white"/>
</g>
</g>
</g>
</g>
</svg>
