<svg width="131" height="63" viewBox="0 0 131 63" fill="none" xmlns="http://www.w3.org/2000/svg">
<path d="M0 35.3003V42.1397C0 48.2567 11.1938 53.2124 25 53.2124C38.8062 53.2124 50 48.2567 50 42.1397V35.3003H0Z" fill="#212161"/>
<path d="M0 34.2031V41.0426C0 47.1595 11.1938 52.1152 25 52.1152C38.8062 52.1152 50 47.1595 50 41.0426V34.2031H0Z" fill="#FFC233"/>
<path d="M50 34.2032C50 40.3202 38.8062 45.2759 25 45.2759C11.1938 45.2759 0 40.3202 0 34.2032C0 28.0863 11.1938 23.1306 25 23.1306C38.8062 23.1306 50 28.0863 50 34.2032Z" fill="#FEE013"/>
<path d="M46.9218 33.7964C46.9218 38.4738 37.1092 42.2628 25 42.2628C12.8908 42.2628 3.07812 38.4738 3.07812 33.7964C3.07812 29.1191 12.8908 25.3247 25 25.3247C37.1092 25.3247 46.9218 29.1137 46.9218 33.7964Z" fill="#FEE013"/>
<path opacity="0.6" d="M25 26.3041C36.6809 26.3041 46.2312 29.8362 46.8843 34.2834C46.9058 34.1229 46.9218 33.957 46.9218 33.7964C46.9218 29.1191 37.1092 25.3247 25 25.3247C12.8908 25.3247 3.07812 29.1137 3.07812 33.7964C3.07812 33.957 3.09419 34.1229 3.1156 34.2834C3.77406 29.8308 13.319 26.3041 25 26.3041Z" fill="#FEE013"/>
<path d="M0 25.6726V32.5121C0 38.629 11.1938 43.5847 25 43.5847C38.8062 43.5847 50 38.6237 50 32.5121V25.6726H0Z" fill="#FFC233"/>
<path d="M50 25.6727C50 31.7897 38.8062 36.7454 25 36.7454C11.1938 36.7454 0 31.7897 0 25.6727C0 19.5558 11.1938 14.6001 25 14.6001C38.8062 14.6001 50 19.5611 50 25.6727Z" fill="#FEE013"/>
<path d="M46.9218 25.2713C46.9218 29.9486 37.1092 33.743 25 33.743C12.8908 33.743 3.07812 29.954 3.07812 25.2713C3.07812 20.5886 12.8908 16.7996 25 16.7996C37.1092 16.7996 46.9218 20.5939 46.9218 25.2713Z" fill="#FEE013"/>
<path opacity="0.6" d="M25 17.7789C36.6809 17.7789 46.2312 21.311 46.8843 25.7583C46.9058 25.5977 46.9218 25.4318 46.9218 25.2713C46.9218 20.5939 37.1092 16.7996 25 16.7996C12.8908 16.7996 3.07812 20.5939 3.07812 25.2713C3.07812 25.4372 3.09419 25.5977 3.1156 25.7583C3.77406 21.3057 13.319 17.7789 25 17.7789Z" fill="#FEE013"/>
<path d="M0 17.0725V23.912C0 30.0289 11.1938 34.9846 25 34.9846C38.8062 34.9846 50 30.0236 50 23.912V17.0725H0Z" fill="#FFC233"/>
<path d="M50 17.0726C50 23.1896 38.8062 28.1453 25 28.1453C11.1938 28.1453 0 23.1896 0 17.0726C0 10.9557 11.1938 6 25 6C38.8062 6 50 10.9557 50 17.0726Z" fill="#FFE743"/>
<path d="M46.9218 16.6658C46.9218 21.3432 37.1092 25.1375 25 25.1375C12.8908 25.1375 3.07812 21.3485 3.07812 16.6658C3.07812 11.9831 12.8908 8.19409 25 8.19409C37.1092 8.19409 46.9218 11.9884 46.9218 16.6658Z" fill="#FEE013"/>
<path d="M25 9.17345C36.6809 9.17345 46.2312 12.7056 46.8843 17.1582C46.9058 16.9976 46.9218 16.8317 46.9218 16.6658C46.9218 11.9884 37.1092 8.19409 25 8.19409C12.8908 8.19409 3.07812 11.9884 3.07812 16.6658C3.07812 16.8317 3.09419 16.9923 3.1156 17.1582C3.77406 12.7056 13.319 9.17345 25 9.17345Z" fill="#E9D026" fill-opacity="0.913725"/>
<path d="M81 34.7002V41.5396C81 47.6566 92.1938 52.6123 106 52.6123C119.806 52.6123 131 47.6566 131 41.5396V34.7002H81Z" fill="#212161"/>
<path d="M81 33.603V40.4425C81 46.5595 92.1938 51.5151 106 51.5151C119.806 51.5151 131 46.5595 131 40.4425V33.603H81Z" fill="#FFC233"/>
<path d="M131 33.6031C131 39.7201 119.806 44.6758 106 44.6758C92.1938 44.6758 81 39.7201 81 33.6031C81 27.4862 92.1938 22.5305 106 22.5305C119.806 22.5305 131 27.4862 131 33.6031Z" fill="#FEE013"/>
<path d="M127.922 33.1963C127.922 37.8737 118.109 41.6627 106 41.6627C93.8908 41.6627 84.0781 37.8737 84.0781 33.1963C84.0781 28.519 93.8908 24.7246 106 24.7246C118.109 24.7246 127.922 28.5136 127.922 33.1963Z" fill="#FEE013"/>
<path opacity="0.6" d="M106 25.704C117.681 25.704 127.231 29.2361 127.884 33.6833C127.906 33.5228 127.922 33.3569 127.922 33.1963C127.922 28.519 118.109 24.7246 106 24.7246C93.8908 24.7246 84.0781 28.5136 84.0781 33.1963C84.0781 33.3569 84.0942 33.5228 84.1156 33.6833C84.7741 29.2307 94.319 25.704 106 25.704Z" fill="#FEE013"/>
<path d="M81 25.0725V31.912C81 38.0289 92.1938 42.9846 106 42.9846C119.806 42.9846 131 38.0236 131 31.912V25.0725H81Z" fill="#FFC233"/>
<path d="M131 25.0726C131 31.1896 119.806 36.1453 106 36.1453C92.1938 36.1453 81 31.1896 81 25.0726C81 18.9557 92.1938 14 106 14C119.806 14 131 18.961 131 25.0726Z" fill="#FFE743"/>
<path d="M127.922 24.6712C127.922 29.3485 118.109 33.1429 106 33.1429C93.8908 33.1429 84.0781 29.3539 84.0781 24.6712C84.0781 19.9885 93.8908 16.1995 106 16.1995C118.109 16.1995 127.922 19.9938 127.922 24.6712Z" fill="#FEE013"/>
<path opacity="0.6" d="M106 17.1788C117.681 17.1788 127.231 20.7109 127.884 25.1582C127.906 24.9976 127.922 24.8317 127.922 24.6712C127.922 19.9938 118.109 16.1995 106 16.1995C93.8908 16.1995 84.0781 19.9938 84.0781 24.6712C84.0781 24.8371 84.0942 24.9976 84.1156 25.1582C84.7741 20.7056 94.319 17.1788 106 17.1788Z" fill="#E9D026"/>
<path d="M34 27.4114L34.543 27.3126L35.1055 27.2072C35.1055 27.2072 35.4132 27.1481 35.6094 27.1056C37.7456 26.6424 38.4327 26.4062 38.4327 26.4062L39 50.0001L38 50.5001L36 51.0001L34 51.346V27.4114Z" fill="#0D0D0D" fill-opacity="0.04"/>
<path d="M93.0078 34.5351L92.7773 34.4726L92.6016 34.4258C92.6016 34.4258 92.4219 34.3867 91.924 34.2238C88.6953 33.3281 87.2031 32.293 87.2031 32.293L88 48.1283C88 48.1283 88.7131 48.462 89.3711 48.7064C90.0103 49.0569 92.7969 49.8432 92.7969 49.8432L93 49.9057L93.0078 34.5351Z" fill="#0D0D0D" fill-opacity="0.04"/>
<path d="M93.0078 34.5351L92.7773 34.4726L92.6016 34.4258C92.6016 34.4258 92.4219 34.3867 91.924 34.2238C88.6953 33.3281 87.2031 32.293 87.2031 32.293L88 48.1283C88 48.1283 88.7131 48.462 89.3711 48.7064C90.0103 49.0569 92.7969 49.8432 92.7969 49.8432L93 49.9057L93.0078 34.5351Z" fill="#0D0D0D" fill-opacity="0.04"/>
<g clip-path="url(#clip0_190_3408)">
<path d="M38 45.0876V51.9271C38 58.0441 49.1938 62.9997 63 62.9997C76.8062 62.9997 88 58.0441 88 51.9271V45.0876H38Z" fill="#212161"/>
<path d="M38 43.9905V50.8299C38 56.9469 49.1938 61.9026 63 61.9026C76.8062 61.9026 88 56.9469 88 50.8299V43.9905H38Z" fill="#FFC233"/>
<path d="M88 43.9906C88 50.1076 76.8062 55.0632 63 55.0632C49.1938 55.0632 38 50.1076 38 43.9906C38 37.8736 49.1938 32.918 63 32.918C76.8062 32.918 88 37.8736 88 43.9906Z" fill="#FEE013"/>
<path d="M84.9218 43.5838C84.9218 48.2611 75.1092 52.0501 63 52.0501C50.8908 52.0501 41.0781 48.2611 41.0781 43.5838C41.0781 38.9064 50.8908 35.1121 63 35.1121C75.1092 35.1121 84.9218 38.9011 84.9218 43.5838Z" fill="#FEE013"/>
<path opacity="0.6" d="M63 36.0914C74.6809 36.0914 84.2312 39.6235 84.8843 44.0708C84.9058 43.9102 84.9218 43.7443 84.9218 43.5838C84.9218 38.9064 75.1092 35.1121 63 35.1121C50.8908 35.1121 41.0781 38.9011 41.0781 43.5838C41.0781 43.7443 41.0942 43.9102 41.1156 44.0708C41.7741 39.6182 51.319 36.0914 63 36.0914Z" fill="#FEE013"/>
<path d="M38 35.46V42.2994C38 48.4164 49.1938 53.372 63 53.372C76.8062 53.372 88 48.411 88 42.2994V35.46H38Z" fill="#FFC233"/>
<path d="M88 35.4601C88 41.5771 76.8062 46.5327 63 46.5327C49.1938 46.5327 38 41.5771 38 35.4601C38 29.3431 49.1938 24.3875 63 24.3875C76.8062 24.3875 88 29.3485 88 35.4601Z" fill="#FEE013"/>
<path d="M84.9218 35.0586C84.9218 39.736 75.1092 43.5303 63 43.5303C50.8908 43.5303 41.0781 39.7414 41.0781 35.0586C41.0781 30.3759 50.8908 26.5869 63 26.5869C75.1092 26.5869 84.9218 30.3813 84.9218 35.0586Z" fill="#FEE013"/>
<path opacity="0.6" d="M63 27.5663C74.6809 27.5663 84.2312 31.0984 84.8843 35.5456C84.9058 35.3851 84.9218 35.2192 84.9218 35.0586C84.9218 30.3813 75.1092 26.5869 63 26.5869C50.8908 26.5869 41.0781 30.3813 41.0781 35.0586C41.0781 35.2245 41.0942 35.3851 41.1156 35.5456C41.7741 31.093 51.319 27.5663 63 27.5663Z" fill="#FEE013"/>
<path d="M38 26.8599V33.6993C38 39.8163 49.1938 44.7719 63 44.7719C76.8062 44.7719 88 39.8109 88 33.6993V26.8599H38Z" fill="#FFC233"/>
<path d="M88 26.86C88 32.977 76.8062 37.9326 63 37.9326C49.1938 37.9326 38 32.977 38 26.86C38 20.743 49.1938 15.7874 63 15.7874C76.8062 15.7874 88 20.743 88 26.86Z" fill="#FFE743"/>
<path d="M84.9218 26.4532C84.9218 31.1305 75.1092 34.9249 63 34.9249C50.8908 34.9249 41.0781 31.1359 41.0781 26.4532C41.0781 21.7704 50.8908 17.9814 63 17.9814C75.1092 17.9814 84.9218 21.7758 84.9218 26.4532Z" fill="#FEE013"/>
<path d="M63 18.9608C74.6809 18.9608 84.2312 22.4929 84.8843 26.9455C84.9058 26.785 84.9218 26.6191 84.9218 26.4532C84.9218 21.7758 75.1092 17.9814 63 17.9814C50.8908 17.9814 41.0781 21.7758 41.0781 26.4532C41.0781 26.6191 41.0942 26.7796 41.1156 26.9455C41.7741 22.4929 51.319 18.9608 63 18.9608Z" fill="#E9D026"/>
<path d="M39.6702 5.16431L38.2998 10.8478C37.0739 15.9319 46.5332 22.5733 59.4186 25.6827C72.3094 28.792 83.7548 27.1918 84.9807 22.1024L86.3512 16.4189L39.6702 5.16431Z" fill="#FFC233"/>
<path d="M86.3514 16.419C85.1255 21.5031 73.6801 23.1033 60.7893 19.9939C47.8985 16.89 38.4445 10.2485 39.6704 5.16443C40.8963 0.0803277 52.3417 -1.52518 65.2325 1.58415C78.1233 4.69348 87.5773 11.3349 86.3514 16.419Z" fill="#FFE743"/>
<path d="M83.5618 15.3915C82.625 19.2822 72.7 20.224 61.3937 17.4947C50.0929 14.7707 41.6882 9.4083 42.625 5.51763C43.5618 1.62695 53.4869 0.685057 64.7931 3.41441C76.094 6.13842 84.4987 11.5008 83.5618 15.3915Z" fill="#FEE013"/>
<path d="M64.5948 4.22786C75.4995 6.85554 83.7115 11.9396 83.4278 15.7875C83.4813 15.6591 83.5295 15.5253 83.5616 15.3915C84.4984 11.5008 76.0937 6.13842 64.7929 3.41441C53.4867 0.685051 43.5616 1.6323 42.6248 5.51762C42.5927 5.65141 42.5713 5.79056 42.5605 5.93505C44.0648 2.38153 53.6847 1.60019 64.5948 4.22786Z" fill="#E9D026"/>
</g>
<defs>
<clipPath id="clip0_190_3408">
<rect width="50" height="63" fill="white" transform="translate(38)"/>
</clipPath>
</defs>
</svg>
