<svg width="44" height="44" viewBox="0 0 44 44" fill="none" xmlns="http://www.w3.org/2000/svg">
<g id="Avatar">
<circle id="Image" cx="22" cy="22" r="22" fill="#30308F"/>
<g id="icon_money">
<g id="Group">
<path id="Vector (Stroke)" fill-rule="evenodd" clip-rule="evenodd" d="M14.8773 12.3673C15.9599 11.9337 17.3848 11.6875 18.9062 11.6875C20.4277 11.6875 21.8526 11.9337 22.9352 12.3673C23.4735 12.5829 23.9782 12.8652 24.3652 13.2307C24.7538 13.5978 25.0938 14.1214 25.0938 14.7812C25.0938 15.4411 24.7538 15.9647 24.3652 16.3318C23.9782 16.6973 23.4735 16.9796 22.9352 17.1952C21.8526 17.6288 20.4277 17.875 18.9062 17.875C17.3848 17.875 15.9599 17.6288 14.8773 17.1952C14.339 16.9796 13.8343 16.6973 13.4473 16.3318C13.0587 15.9647 12.7188 15.4411 12.7188 14.7812C12.7188 14.1214 13.0587 13.5978 13.4473 13.2307C13.8343 12.8652 14.339 12.5829 14.8773 12.3673ZM14.7716 14.8397C14.7715 14.8397 14.7721 14.838 14.774 14.8345C14.7727 14.838 14.7718 14.8397 14.7716 14.8397ZM14.8136 14.7812C14.8263 14.7669 14.8427 14.7498 14.8635 14.7302C14.9986 14.6026 15.2493 14.4401 15.6442 14.2819C16.4283 13.9679 17.5815 13.75 18.9062 13.75C20.231 13.75 21.3842 13.9679 22.1683 14.2819C22.5632 14.4401 22.8139 14.6026 22.949 14.7302C22.9698 14.7498 22.9862 14.7669 22.9989 14.7812C22.9862 14.7956 22.9698 14.8127 22.949 14.8323C22.8139 14.9599 22.5632 15.1224 22.1683 15.2806C21.3842 15.5946 20.231 15.8125 18.9062 15.8125C17.5815 15.8125 16.4283 15.5946 15.6442 15.2806C15.2493 15.1224 14.9986 14.9599 14.8635 14.8323C14.8427 14.8127 14.8263 14.7956 14.8136 14.7812ZM23.0409 14.8397C23.0407 14.8397 23.0398 14.838 23.0385 14.8344C23.0404 14.838 23.041 14.8397 23.0409 14.8397ZM23.0385 14.7281C23.0398 14.7245 23.0407 14.7228 23.0409 14.7228C23.041 14.7228 23.0404 14.7245 23.0385 14.7281ZM14.774 14.728C14.7721 14.7245 14.7715 14.7228 14.7716 14.7228C14.7718 14.7228 14.7727 14.7245 14.774 14.728Z" fill="white"/>
<path id="Vector (Stroke)_2" fill-rule="evenodd" clip-rule="evenodd" d="M24.0625 13.75C24.632 13.75 25.0938 14.2117 25.0938 14.7812V22.7838C25.0938 23.3533 24.632 23.815 24.0625 23.815C23.493 23.815 23.0312 23.3533 23.0312 22.7838V14.7812C23.0312 14.2117 23.493 13.75 24.0625 13.75Z" fill="white"/>
<path id="Vector (Stroke)_3" fill-rule="evenodd" clip-rule="evenodd" d="M14.7804 18.8638C14.7581 18.3139 14.3053 17.875 13.75 17.875C13.1805 17.875 12.7188 18.3367 12.7188 18.9062C12.7188 19.5661 13.0587 20.0897 13.4473 20.4568C13.8343 20.8223 14.339 21.1046 14.8773 21.3202C15.9599 21.7538 17.3848 22 18.9062 22C20.4277 22 21.8526 21.7538 22.9352 21.3202C23.4735 21.1046 23.9782 20.8223 24.3652 20.4568C24.7538 20.0897 25.0938 19.5661 25.0938 18.9062C25.0938 18.3367 24.632 17.875 24.0625 17.875C23.5072 17.875 23.0544 18.3139 23.0321 18.8638C23.0208 18.8811 22.9967 18.9123 22.949 18.9573C22.8139 19.0849 22.5632 19.2474 22.1683 19.4056C21.3842 19.7196 20.231 19.9375 18.9062 19.9375C17.5815 19.9375 16.4283 19.7196 15.6442 19.4056C15.2493 19.2474 14.9986 19.0849 14.8635 18.9573C14.8158 18.9123 14.7917 18.8811 14.7804 18.8638ZM23.0409 18.8478C23.041 18.8478 23.0404 18.8495 23.0385 18.8531C23.0398 18.8495 23.0407 18.8478 23.0409 18.8478ZM14.774 18.853C14.7721 18.8495 14.7715 18.8478 14.7716 18.8478C14.7718 18.8478 14.7727 18.8495 14.774 18.853Z" fill="white"/>
<path id="Vector (Stroke)_4" fill-rule="evenodd" clip-rule="evenodd" d="M29.1887 24.0884C27.7884 22.68 25.5039 22.677 24.0905 24.0905L24.0884 24.0925L24.0884 24.0925C22.68 25.4929 22.677 27.7774 24.0905 29.1908L24.0925 29.1929C25.4929 30.6012 27.7774 30.6042 29.1908 29.1908L29.1929 29.1887C30.6012 27.7884 30.6042 25.5039 29.1908 24.0905L29.1887 24.0884ZM30.6502 22.6331C28.4415 20.4128 24.8494 20.4158 22.6331 22.631C20.4128 24.8398 20.4158 28.4319 22.631 30.6482C24.8398 32.8684 28.4319 32.8654 30.6482 30.6502C32.8684 28.4415 32.8654 24.8494 30.6502 22.6331Z" fill="white"/>
<path id="Vector (Stroke)_5" fill-rule="evenodd" clip-rule="evenodd" d="M14.7804 22.9888C14.7581 22.4389 14.3053 22 13.75 22C13.1805 22 12.7188 22.4617 12.7188 23.0312C12.7188 23.6911 13.0587 24.2147 13.4473 24.5818C13.8343 24.9473 14.339 25.2296 14.8773 25.4452C15.9599 25.8788 17.3848 26.125 18.9062 26.125C20.4057 26.125 21.8205 25.8844 22.8986 25.4531C23.4274 25.2416 23.6846 24.6414 23.4731 24.1126C23.2616 23.5838 22.6614 23.3266 22.1326 23.5381C21.3545 23.8494 20.2118 24.0625 18.9062 24.0625C17.5815 24.0625 16.4283 23.8446 15.6442 23.5306C15.2493 23.3724 14.9986 23.2099 14.8635 23.0823C14.8158 23.0373 14.7917 23.0061 14.7804 22.9888ZM14.774 22.978C14.7721 22.9745 14.7715 22.9728 14.7716 22.9728C14.7718 22.9728 14.7727 22.9745 14.774 22.978Z" fill="white"/>
<path id="Vector (Stroke)_6" fill-rule="evenodd" clip-rule="evenodd" d="M13.75 13.75C14.3195 13.75 14.7812 14.2117 14.7812 14.7812V27.1151C14.7929 27.1326 14.8169 27.1634 14.8635 27.2073C14.9986 27.3349 15.2493 27.4974 15.6442 27.6556C16.4283 27.9696 17.5815 28.1875 18.9062 28.1875C20.1851 28.1875 21.3065 27.9762 22.0996 27.6765C22.6324 27.4753 23.2275 27.744 23.4288 28.2768C23.63 28.8096 23.3613 29.4047 22.8285 29.606C21.7654 30.0076 20.3912 30.25 18.9062 30.25C17.3848 30.25 15.9599 30.0038 14.8773 29.5702C14.339 29.3546 13.8343 29.0723 13.4473 28.7068C13.0587 28.3397 12.7188 27.8161 12.7188 27.1562V14.7812C12.7188 14.2117 13.1805 13.75 13.75 13.75ZM14.7716 27.0978C14.7718 27.0978 14.7727 27.0995 14.774 27.1031C14.7721 27.0995 14.7715 27.0978 14.7716 27.0978Z" fill="white"/>
</g>
</g>
</g>
</svg>
