<svg width="16" height="16" viewBox="0 0 16 16" fill="none" xmlns="http://www.w3.org/2000/svg">
<path fill-rule="evenodd" clip-rule="evenodd" d="M15.7071 0.292893C16.0676 0.653377 16.0953 1.22061 15.7903 1.6129L15.7071 1.70711L9.414 7.99988L15.7071 14.2929C16.0976 14.6834 16.0976 15.3166 15.7071 15.7071C15.3466 16.0676 14.7794 16.0953 14.3871 15.7903L14.2929 15.7071L7.99988 9.414L1.70711 15.7071C1.31658 16.0976 0.683418 16.0976 0.292893 15.7071C-0.0675906 15.3466 -0.0953204 14.7794 0.209704 14.3871L0.292893 14.2929L6.58575 7.99988L0.292893 1.70711C-0.0976309 1.31658 -0.0976309 0.683418 0.292893 0.292893C0.653377 -0.0675906 1.22061 -0.0953204 1.6129 0.209704L1.70711 0.292893L7.99988 6.58575L14.2929 0.292893C14.6834 -0.0976309 15.3166 -0.0976309 15.7071 0.292893Z" fill="#508357"/>
</svg>
