<svg width="17" height="12" viewBox="0 0 17 12" fill="none" xmlns="http://www.w3.org/2000/svg">
<path fill-rule="evenodd" clip-rule="evenodd" d="M15.9999 0.659912H14.9999C14.4477 0.659912 13.9999 1.10835 13.9999 1.66152V10.3421C13.9999 10.8952 14.4477 11.3437 14.9999 11.3437H15.9999C16.5522 11.3437 16.9999 10.8952 16.9999 10.3421V1.66152C16.9999 1.10835 16.5522 0.659912 15.9999 0.659912ZM10.3333 2.9969H11.3333C11.8856 2.9969 12.3333 3.44534 12.3333 3.99851V10.342C12.3333 10.8952 11.8856 11.3436 11.3333 11.3436H10.3333C9.78101 11.3436 9.3333 10.8952 9.3333 10.342V3.99851C9.3333 3.44534 9.78101 2.9969 10.3333 2.9969ZM6.66666 5.33414H5.66665C5.11437 5.33414 4.66665 5.78257 4.66665 6.33574V10.3422C4.66665 10.8953 5.11437 11.3438 5.66665 11.3438H6.66666C7.21894 11.3438 7.66666 10.8953 7.66666 10.3422V6.33574C7.66666 5.78257 7.21894 5.33414 6.66666 5.33414ZM2.00001 7.33735H1C0.447717 7.33735 0 7.78578 0 8.33895V10.3422C0 10.8953 0.447717 11.3438 1 11.3438H2.00001C2.55229 11.3438 3.00001 10.8953 3.00001 10.3422V8.33895C3.00001 7.78578 2.55229 7.33735 2.00001 7.33735Z" fill="black"/>
</svg>
