<svg width="16" height="16" viewBox="0 0 16 16" fill="none" xmlns="http://www.w3.org/2000/svg">
<g id="reply-thread">
<g id="Fll">
<path d="M11.3334 6.00016H4.66671V4.66683H11.3334V6.00016Z" fill="#0D0D0D"/>
<path d="M4.66671 8.66683H10V7.3335H4.66671V8.66683Z" fill="#0D0D0D"/>
<path fill-rule="evenodd" clip-rule="evenodd" d="M3.00004 1.3335C2.07957 1.3335 1.33337 2.07969 1.33337 3.00016V14.6668L4.00004 12.0002H13C13.9205 12.0002 14.6667 11.254 14.6667 10.3335L14.6667 3.00016C14.6667 2.07969 13.9205 1.3335 13 1.3335H3.00004ZM13 10.6668C13.1841 10.6668 13.3334 10.5176 13.3334 10.3335L13.3334 3.00016C13.3334 2.81607 13.1841 2.66683 13 2.66683H3.00004C2.81595 2.66683 2.66671 2.81607 2.66671 3.00016V11.4479L3.44776 10.6668H13Z" fill="#0D0D0D"/>
</g>
</g>
</svg>
