<svg width="64" height="64" viewBox="0 0 64 64" fill="none" xmlns="http://www.w3.org/2000/svg">
<g id="icon-error">
<path id="Color" fill-rule="evenodd" clip-rule="evenodd" d="M32 5.05933C34.6216 5.05933 37.0648 6.34262 38.5612 8.4835L38.8477 8.92299L61.456 46.6665C62.8774 49.1281 62.8859 52.1591 61.4783 54.6286C60.1586 56.9438 57.7802 58.4395 55.1218 58.6432L54.5867 58.6666H9.38404C6.54169 58.6352 3.92937 57.0981 2.52174 54.6286C1.20796 52.3237 1.12777 49.5297 2.2962 47.1361L2.5657 46.6297L25.16 8.9103C26.6103 6.51943 29.2037 5.05933 32 5.05933ZM32 10.3927C31.1844 10.3927 30.4206 10.7653 29.9237 11.3838L29.7277 11.6636L7.16265 49.3335C6.68884 50.154 6.68601 51.1643 7.15522 51.9875C7.56578 52.7078 8.28378 53.1901 9.07195 53.3064L9.41334 53.3335H54.5574C55.5048 53.3231 56.3756 52.8107 56.8448 51.9875C57.2554 51.2672 57.3045 50.4037 57.0075 49.674L56.859 49.3703L34.28 11.6763C33.7966 10.8794 32.9321 10.3927 32 10.3927ZM32 42.6666C33.4728 42.6666 34.6667 43.8605 34.6667 45.3333C34.6667 46.8061 33.4728 48 32 48C30.5273 48 29.3333 46.8061 29.3333 45.3333C29.3333 43.8605 30.5273 42.6666 32 42.6666ZM32 21.3333C33.3676 21.3333 34.4947 22.3628 34.6487 23.689L34.6667 24V34.6666C34.6667 36.1394 33.4728 37.3333 32 37.3333C30.6325 37.3333 29.5053 36.3039 29.3513 34.9776L29.3333 34.6666V24C29.3333 22.5272 30.5273 21.3333 32 21.3333Z" fill="black" fill-opacity="0.38"/>
</g>
</svg>
