<svg xmlns="http://www.w3.org/2000/svg" width="32" height="32" viewBox="0 0 32 32" fill="none">
  <path fill-rule="evenodd" clip-rule="evenodd" d="M16.0002 2.66663C14.5274 2.66663 13.3335 3.86053 13.3335 5.33329C13.3335 6.32037 13.8698 7.1822 14.6669 7.64326V9.33334H4.00037V26C4.00037 27.841 5.49276 29.3333 7.33371 29.3333H24.667C26.508 29.3333 28.0004 27.841 28.0004 26V12.6667C28.0004 10.8257 26.508 9.33334 24.667 9.33334H17.3336V7.64315C18.1306 7.18206 18.6669 6.3203 18.6669 5.33329C18.6669 3.86053 17.4729 2.66663 16.0002 2.66663ZM6.66704 12V26C6.66704 26.3682 6.96552 26.6667 7.33371 26.6667H24.667C25.0352 26.6667 25.3337 26.3682 25.3337 26V12.6667C25.3337 12.2985 25.0352 12 24.667 12H6.66704ZM9.33296 17.3333C9.33296 15.8605 10.5269 14.6666 11.9996 14.6666C13.4724 14.6666 14.6663 15.8605 14.6663 17.3333C14.6663 18.806 13.4724 19.9999 11.9996 19.9999C10.5269 19.9999 9.33296 18.806 9.33296 17.3333ZM20.0002 14.6666C18.5274 14.6666 17.3335 15.8605 17.3335 17.3333C17.3335 18.806 18.5274 19.9999 20.0002 19.9999C21.4729 19.9999 22.6669 18.806 22.6669 17.3333C22.6669 15.8605 21.4729 14.6666 20.0002 14.6666ZM2.86091e-07 22.6666L0 14.6666H2.66667L2.66667 22.6666H2.86091e-07ZM29.3329 14.6666V22.6666H31.9995V14.6666H29.3329Z" fill="white"/>
</svg>
