<svg width="16" height="12" viewBox="0 0 16 12" fill="none" xmlns="http://www.w3.org/2000/svg">
<path fill-rule="evenodd" clip-rule="evenodd" d="M7.66708 2.61114C9.89181 2.61123 12.0315 3.46671 13.6438 5.00076C13.7652 5.1192 13.9593 5.1177 14.0789 4.99741L15.2395 3.82521C15.3001 3.7642 15.3338 3.68155 15.3333 3.59557C15.3328 3.50958 15.2981 3.42734 15.2368 3.36704C11.0049 -0.691683 4.32857 -0.691683 0.0966566 3.36704C0.0353544 3.4273 0.00057226 3.50951 6.99895e-06 3.5955C-0.000558291 3.68148 0.0331399 3.76415 0.0936447 3.82521L1.25459 4.99741C1.3741 5.11788 1.56831 5.11938 1.68965 5.00076C3.30222 3.46661 5.44212 2.61113 7.66708 2.61114ZM7.66737 6.42478C8.88971 6.42471 10.0684 6.87939 10.9745 7.70048C11.0971 7.81701 11.2901 7.81448 11.4096 7.69478L12.5688 6.52258C12.6299 6.46109 12.6638 6.37768 12.6629 6.29101C12.662 6.20433 12.6264 6.12163 12.5642 6.0614C9.805 3.49288 5.53208 3.49288 2.77292 6.0614C2.71059 6.12163 2.67503 6.20437 2.67422 6.29107C2.6734 6.37778 2.70739 6.46118 2.76857 6.52258L3.92751 7.69478C4.04697 7.81448 4.24002 7.81701 4.36257 7.70048C5.26804 6.87993 6.44583 6.42529 7.66737 6.42478ZM9.98916 8.99076C9.99093 9.07768 9.95679 9.16148 9.89479 9.22237L7.88949 11.2476C7.83071 11.3071 7.75057 11.3406 7.66694 11.3406C7.58332 11.3406 7.50318 11.3071 7.44439 11.2476L5.43877 9.22237C5.37681 9.16143 5.34272 9.07761 5.34456 8.99069C5.3464 8.90377 5.38399 8.82146 5.44847 8.7632C6.72913 7.67919 8.60476 7.67919 9.88542 8.7632C9.94985 8.82151 9.98738 8.90384 9.98916 8.99076Z" fill="black"/>
</svg>
