<svg width="32" height="32" viewBox="0 0 32 32" fill="none" xmlns="http://www.w3.org/2000/svg">
<path fill-rule="evenodd" clip-rule="evenodd" d="M13 3C13 1.34315 14.3431 0 16 0C17.6569 0 19 1.34315 19 3C19 4.4865 17.9189 5.72048 16.5 5.95852V8H20C25.036 8 29.2816 11.3842 30.5866 16.0025C31.3747 16.0473 32 16.7007 32 17.5V21.5C32 22.3284 31.3284 23 30.5 23C30.4175 23 30.3366 22.9933 30.2577 22.9805C28.6626 27.0882 24.6714 30 20 30H12C7.32865 30 3.3374 27.0882 1.7423 22.9805C1.66342 22.9933 1.58249 23 1.5 23C0.671573 23 0 22.3284 0 21.5V17.5C0 16.7007 0.625255 16.0473 1.41337 16.0025C2.71841 11.3842 6.964 8 12 8H15.5V5.95852C14.0811 5.72048 13 4.4865 13 3ZM12 12C8.13401 12 5 15.134 5 19C5 22.866 8.13401 26 12 26H20C23.866 26 27 22.866 27 19C27 15.134 23.866 12 20 12H12ZM9 19C9 17.8954 9.89543 17 11 17C12.1046 17 13 17.8954 13 19C13 20.1046 12.1046 21 11 21C9.89543 21 9 20.1046 9 19ZM21 17C19.8954 17 19 17.8954 19 19C19 20.1046 19.8954 21 21 21C22.1046 21 23 20.1046 23 19C23 17.8954 22.1046 17 21 17Z" fill="white"/>
</svg>
