<svg width="16" height="16" viewBox="0 0 16 16" fill="none" xmlns="http://www.w3.org/2000/svg">
<path d="M7.25 11.75V7.25H8.75V11.75H7.25Z" fill="black" fill-opacity="0.5"/>
<path d="M8 6.125C8.51777 6.125 8.9375 5.70527 8.9375 5.1875C8.9375 4.66973 8.51777 4.25 8 4.25C7.48223 4.25 7.0625 4.66973 7.0625 5.1875C7.0625 5.70527 7.48223 6.125 8 6.125Z" fill="black" fill-opacity="0.5"/>
<path fill-rule="evenodd" clip-rule="evenodd" d="M0.5 8C0.5 3.85786 3.85786 0.5 8 0.5C12.1421 0.5 15.5 3.85786 15.5 8C15.5 12.1421 12.1421 15.5 8 15.5C3.85786 15.5 0.5 12.1421 0.5 8ZM8 2C4.68629 2 2 4.68629 2 8C2 11.3137 4.68629 14 8 14C11.3137 14 14 11.3137 14 8C14 4.68629 11.3137 2 8 2Z" fill="black" fill-opacity="0.5"/>
</svg>
