<svg width="20" height="18" viewBox="0 0 20 18" fill="none" xmlns="http://www.w3.org/2000/svg">
<path fill-rule="evenodd" clip-rule="evenodd" d="M15.3026 2.41113L15.5134 2.61281L18 4.92515L18.0001 2.00003C18.0001 1.4872 18.3861 1.06453 18.8835 1.00676L19.0001 1.00003C19.5129 1.00003 19.9356 1.38607 19.9934 1.88341L20.0001 2.00003V8.00003C20.0001 8.51287 19.6141 8.93554 19.1167 8.99331L19.0001 9.00003H13.0001C12.4478 9.00003 12.0001 8.55232 12.0001 8.00003C12.0001 7.4872 12.3861 7.06453 12.8835 7.00676L13.0001 7.00003L17.2946 7.00003L14.1295 4.05645C11.8929 1.84645 8.44149 1.36302 5.66851 2.87286C2.90115 4.37964 1.47901 7.50688 2.17556 10.5437C2.87284 13.5837 5.52644 15.8054 8.68662 15.9879C11.8477 16.1705 14.7472 14.2685 15.7992 11.3281C15.9852 10.8081 16.5576 10.5374 17.0776 10.7234C17.5976 10.9095 17.8683 11.4818 17.6823 12.0018C16.3302 15.7809 12.6148 18.2182 8.57128 17.9846C4.52685 17.751 1.12311 14.9013 0.226178 10.9908C-0.671496 7.07716 1.15961 3.05063 4.71213 1.11635C8.17252 -0.767774 12.4557 -0.225629 15.3026 2.41113Z" fill="#30308F"/>
</svg>
