<svg width="16" height="16" viewBox="0 0 16 16" fill="none" xmlns="http://www.w3.org/2000/svg">
<path d="M5.77862 3.9151C6.67822 3.4253 7.71549 3.23712 8.73379 3.37975C9.75206 3.52237 10.6945 3.98777 11.4195 4.70418L11.4267 4.71129L12.8126 6H11.3333V7.33333H15.3333V3.33333H14V5.2834L12.3493 3.74844C11.4197 2.83314 10.2159 2.24099 8.91874 2.05931C7.61814 1.87714 6.29243 2.11719 5.14103 2.74409C3.98952 3.37106 3.07391 4.35154 2.5338 5.5392C1.99363 6.727 1.85887 8.0566 2.15031 9.32718C2.44172 10.5977 3.14309 11.7387 4.14693 12.5792C5.15064 13.4195 6.40257 13.914 7.71388 13.9898C9.02517 14.0655 10.3266 13.7185 11.4221 12.9998C12.5178 12.2811 13.3487 11.2291 13.7881 10.0012L12.5327 9.55204C12.1918 10.5048 11.546 11.324 10.6908 11.885C9.83544 12.4461 8.8176 12.718 7.79077 12.6587C6.76397 12.5994 5.78558 12.2121 5.00285 11.5568C4.22025 10.9016 3.67585 10.0142 3.44989 9.02909C3.22395 8.04408 3.32824 7.01314 3.74752 6.09117C4.16687 5.16906 4.87914 4.40484 5.77862 3.9151Z" fill="#6210CC"/>
</svg>
