<svg width="146" height="25" viewBox="0 0 146 25" fill="none" xmlns="http://www.w3.org/2000/svg">
    <path fill-rule="evenodd" clip-rule="evenodd" d="M12.45 0C19.3 0 24.87 5.65 24.87 12.51C24.87 19.37 19.28 25 12.42 25C5.56 25 0 19.38 0 12.49H6.1C2.71 12.42 0 9.64 0 6.24V0H12.45ZM92.81 0.73V21.54H88.5V19.4C87.46 20.98 85.84 21.86 83.73 21.86C79.88 21.86 76.78 18.31 76.78 14C76.78 9.69 79.86 6.19 83.73 6.19C85.79 6.19 87.41 7.07 88.45 8.58L88.5 8.65V0.73H92.81ZM35.76 6.16C38.96 6.16 41.84 7.82 42.25 11.08V11.18H37.92C37.87 10.42 37.05 9.74 35.67 9.74C34.7 9.74 33.97 10.08 33.97 10.79C33.97 13.15 42.4 10.67 42.42 17C42.42 19.75 39.83 21.87 36.44 21.87C32.59 21.87 29.88 19.92 29.51 16.56V16.46H33.63C33.73 17.46 34.79 18.14 36.22 18.14C37.5 18.14 38.23 17.7 38.23 17C38.23 14.52 29.8 16.73 29.8 11.11C29.81 8.28 32.08 6.16 35.76 6.16ZM145.28 0.73V21.52H141V19.38C139.96 20.96 138.34 21.84 136.23 21.84C132.33 21.84 129.26 18.29 129.26 13.98C129.26 9.67 132.34 6.17 136.21 6.17C138.27 6.17 139.89 7.05 140.93 8.56L140.98 8.63V0.73H145.28ZM99.42 0.73V8.57C100.46 7.01 102.06 6.16 104.14 6.16C108.04 6.16 111.11 9.69 111.11 14C111.11 18.31 108.03 21.84 104.16 21.84C102.15 21.84 100.53 20.99 99.49 19.48L99.44 19.41V21.53H95.13V0.73H99.42ZM51.74 6.16C55.81 6.16 59.13 9.37 59.13 13.51C59.13 13.95 59.11 14.39 59.06 14.83L59.04 15.05H47.92C48.21 17 49.71 18.26 51.72 18.26C53.37 18.26 54.41 17.55 54.67 16.53L54.69 16.48H58.9C58.42 19.69 55.63 21.79 51.95 21.83H51.64C47.33 21.78 43.92 18.23 43.96 13.92C43.97 9.52 47.38 6.16 51.74 6.16ZM127.51 6.13C127.95 6.15 128.36 6.2 128.77 6.3L128.94 6.32V10.26C128.43 10.11 127.92 10.04 127.39 10.04C125.33 10.04 123.69 11.26 123.64 13.98V21.5H119.33V6.45H123.64V8.15C124.49 6.91 125.84 6.15 127.32 6.13H127.51ZM69.03 6.16C72.84 6.16 75.16 8.71 75.18 12.87V21.52H70.87V13.54C70.87 11.57 69.71 10.28 67.92 10.28C66.15 10.28 64.99 11.52 64.97 13.45V21.53H60.66V6.45H64.97V8.4C65.91 6.99 67.31 6.16 69.03 6.16ZM116.98 6.45V21.49H112.67V6.45H116.98ZM133.56 13.95C133.54 15.97 135.11 17.65 137.12 17.72H137.31C139.32 17.67 140.94 16.02 140.94 14C140.94 11.98 139.32 10.32 137.31 10.3C135.3 10.25 133.61 11.88 133.56 13.95ZM81.11 13.95C81.09 15.97 82.66 17.65 84.67 17.72H84.86C86.87 17.67 88.49 16.02 88.49 14C88.49 11.98 86.87 10.32 84.86 10.3C82.83 10.25 81.14 11.88 81.11 13.95ZM103.3 10.2H103.15C101.09 10.22 99.45 11.93 99.47 14C99.47 16.09 101.12 17.7 103.25 17.7C105.31 17.65 106.95 15.95 106.93 13.9C106.9 11.88 105.28 10.25 103.3 10.2ZM51.55 9.69C49.93 9.69 48.67 10.49 48.14 12.2L48.12 12.3H54.63C54.5 10.73 53.15 9.69 51.55 9.69ZM114.8 0C116.23 0 117.41 1.17 117.41 2.6C117.41 4.03 116.27 5.23 114.82 5.23C113.39 5.23 112.21 4.09 112.21 2.63C112.2 1.17 113.34 0 114.8 0Z" fill="#6210CC"/>
</svg>
