<svg width="105" height="18" viewBox="0 0 105 18" fill="none" xmlns="http://www.w3.org/2000/svg">
<path fill-rule="evenodd" clip-rule="evenodd" d="M8.964 0C13.896 0 17.9064 4.068 17.9064 9.0072C17.9064 13.9464 13.8816 18 8.9424 18C4.0032 18 0 13.9536 0 8.9928H4.392C1.9512 8.9424 0 6.9408 0 4.4928V0H8.964ZM66.8233 0.525696V15.5089H63.7201V13.9681C62.9713 15.1057 61.8049 15.7393 60.2857 15.7393C57.5137 15.7393 55.2817 13.1833 55.2817 10.0801C55.2817 6.9769 57.4993 4.4569 60.2857 4.4569C61.7689 4.4569 62.9353 5.0905 63.6841 6.17769L63.7201 6.2281V0.525696H66.8233ZM25.7472 4.43518C28.0512 4.43518 30.1248 5.63038 30.42 7.97758V8.04958H27.3024C27.2664 7.50238 26.676 7.01278 25.6824 7.01278C24.984 7.01278 24.4584 7.25758 24.4584 7.76878C24.4584 9.46798 30.528 7.68238 30.5424 12.24C30.5424 14.22 28.6776 15.7464 26.2368 15.7464C23.4648 15.7464 21.5136 14.3424 21.2472 11.9232V11.8512H24.2136C24.2856 12.5712 25.0488 13.0608 26.0784 13.0608C27 13.0608 27.5256 12.744 27.5256 12.24C27.5256 10.4544 21.456 12.0456 21.456 7.99918C21.4632 5.96158 23.0976 4.43518 25.7472 4.43518ZM104.602 0.525696V15.4945H101.52V13.9537C100.771 15.0913 99.6048 15.7249 98.0856 15.7249C95.2776 15.7249 93.0672 13.1689 93.0672 10.0657C93.0672 6.9625 95.2848 4.4425 98.0712 4.4425C99.5544 4.4425 100.721 5.0761 101.47 6.1633L101.506 6.2137V0.525696H104.602ZM71.5823 0.525696V6.1705C72.3311 5.0473 73.4831 4.4353 74.9807 4.4353C77.7887 4.4353 79.9991 6.9769 79.9991 10.0801C79.9991 13.1833 77.7815 15.7249 74.9951 15.7249C73.5479 15.7249 72.3815 15.1129 71.6327 14.0257L71.5967 13.9753V15.5017H68.4935V0.525696H71.5823ZM37.2528 4.43518C40.1832 4.43518 42.5736 6.74638 42.5736 9.72718C42.5736 10.044 42.5592 10.3608 42.5232 10.6776L42.5088 10.836H34.5024C34.7112 12.24 35.7912 13.1472 37.2384 13.1472C38.4264 13.1472 39.1752 12.636 39.3624 11.9016L39.3768 11.8656H42.408C42.0624 14.1768 40.0536 15.6888 37.404 15.7176H37.1808C34.0776 15.6816 31.6224 13.1256 31.6512 10.0224C31.6584 6.85438 34.1136 4.43518 37.2528 4.43518ZM91.8073 4.41365C92.1241 4.42805 92.4193 4.46405 92.7145 4.53605L92.8369 4.55045V7.38725C92.4697 7.27925 92.1025 7.22885 91.7209 7.22885C90.2377 7.22885 89.0569 8.10725 89.0209 10.0656V15.48H85.9177V4.64405H89.0209V5.86805C89.6329 4.97525 90.6049 4.42805 91.6705 4.41365H91.8073ZM49.7016 4.43518C52.4448 4.43518 54.1152 6.27118 54.1296 9.26638V15.4944H51.0264V9.74878C51.0264 8.33038 50.1912 7.40158 48.9024 7.40158C47.628 7.40158 46.7928 8.29438 46.7784 9.68398V15.5016H43.6752V4.64398H46.7784V6.04798C47.4552 5.03278 48.4632 4.43518 49.7016 4.43518ZM84.2256 4.64403V15.4728H81.1224V4.64403H84.2256ZM96.1632 10.044C96.1488 11.4984 97.2792 12.708 98.7264 12.7584H98.8632C100.31 12.7224 101.477 11.5344 101.477 10.08C101.477 8.62563 100.31 7.43043 98.8632 7.41603C97.416 7.38003 96.1992 8.55363 96.1632 10.044ZM58.3993 10.044C58.3849 11.4984 59.5153 12.708 60.9625 12.7584H61.0993C62.5465 12.7224 63.7129 11.5344 63.7129 10.08C63.7129 8.62563 62.5465 7.43043 61.0993 7.41603C59.6377 7.38003 58.4209 8.55363 58.3993 10.044ZM74.376 7.34403H74.268C72.7848 7.35843 71.604 8.58963 71.6184 10.08C71.6184 11.5848 72.8064 12.744 74.34 12.744C75.8232 12.708 77.004 11.484 76.9896 10.008C76.968 8.55363 75.8016 7.38003 74.376 7.34403ZM37.1161 6.97687C35.9497 6.97687 35.0425 7.55287 34.6609 8.78407L34.6465 8.85607H39.3337C39.2401 7.72567 38.2681 6.97687 37.1161 6.97687ZM82.656 0C83.6856 0 84.5352 0.8424 84.5352 1.872C84.5352 2.9016 83.7144 3.7656 82.6704 3.7656C81.6408 3.7656 80.7912 2.9448 80.7912 1.8936C80.784 0.8424 81.6048 0 82.656 0Z" fill="white"/>
</svg>
