<svg width="52" height="52" viewBox="0 0 52 52" fill="none" xmlns="http://www.w3.org/2000/svg">
<path fill-rule="evenodd" clip-rule="evenodd" d="M26 51.6668C40.1754 51.6668 51.6667 40.1755 51.6667 26.0002C51.6667 11.8249 40.1754 0.333496 26 0.333496C11.8247 0.333496 0.333374 11.8249 0.333374 26.0002C0.333374 27.372 1.44544 28.484 2.81725 28.484C4.18905 28.484 5.30112 27.372 5.30112 26.0002C5.30112 14.5685 14.5683 5.30124 26 5.30124C37.4317 5.30124 46.699 14.5685 46.699 26.0002C46.699 37.4319 37.4317 46.6991 26 46.6991C24.6282 46.6991 23.5162 47.8112 23.5162 49.183C23.5162 50.5548 24.6282 51.6668 26 51.6668Z" fill="#3C7EFF"/>
</svg>
