<svg width="14" height="14" viewBox="0 0 14 14" fill="none" xmlns="http://www.w3.org/2000/svg">
<path d="M9.66659 0.333252V2.66574H8.33325V1.66659H1.99992C1.81582 1.66659 1.66659 1.81582 1.66659 1.99992V8.66659C1.66659 8.85068 1.81582 8.99992 1.99992 8.99992H3.32944V10.3333H1.99992C1.07944 10.3333 0.333252 9.58706 0.333252 8.66659V1.99992C0.333252 1.07944 1.07944 0.333252 1.99992 0.333252H9.66659Z" fill="#5E5E5E"/>
<path fill-rule="evenodd" clip-rule="evenodd" d="M13.6666 3.66659V11.9999C13.6666 12.9204 12.9204 13.6666 11.9999 13.6666H5.99992C5.07944 13.6666 4.33325 12.9204 4.33325 11.9999V5.33325C4.33325 4.41278 5.07944 3.66659 5.99992 3.66659H13.6666ZM12.3333 11.9999V4.99992H5.99992C5.81582 4.99992 5.66659 5.14916 5.66659 5.33325V11.9999C5.66659 12.184 5.81582 12.3333 5.99992 12.3333H11.9999C12.184 12.3333 12.3333 12.184 12.3333 11.9999Z" fill="#5E5E5E"/>
</svg>
