<svg width="109" height="20" viewBox="0 0 109 20" fill="none" xmlns="http://www.w3.org/2000/svg">
<path fill-rule="evenodd" clip-rule="evenodd" d="M9.98815 0.799927C15.0434 0.799927 19.1541 4.96963 19.1541 10.0323C19.1541 15.095 15.0287 19.2499 9.96601 19.2499C4.90333 19.2499 0.800049 15.1024 0.800049 10.0175H5.30185C2.80003 9.96589 0.800049 7.91425 0.800049 5.40505V0.799927H9.98815ZM69.2939 1.33881V16.6966H66.1131V15.1173C65.3456 16.2833 64.1501 16.9327 62.5929 16.9327C59.7516 16.9327 57.4638 14.3128 57.4638 11.1321C57.4638 7.95129 59.7368 5.36829 62.5929 5.36829C64.1132 5.36829 65.3087 6.01773 66.0762 7.13211L66.1131 7.18377V1.33881H69.2939ZM27.191 5.34602C29.5526 5.34602 31.678 6.5711 31.9806 8.97698V9.05078H28.785C28.7481 8.4899 28.143 7.98806 27.1245 7.98806C26.4087 7.98806 25.8699 8.23898 25.8699 8.76296C25.8699 10.5046 32.0913 8.6744 32.106 13.3459C32.106 15.3754 30.1946 16.94 27.6928 16.94C24.8515 16.94 22.8515 15.5009 22.5785 13.0212V12.9474H25.619C25.6928 13.6854 26.4751 14.1873 27.5304 14.1873C28.4751 14.1873 29.0138 13.8625 29.0138 13.3459C29.0138 11.5157 22.7925 13.1467 22.7925 8.99912C22.7999 6.91058 24.4751 5.34602 27.191 5.34602ZM108.017 1.33881V16.6818H104.858V15.1025C104.091 16.2685 102.895 16.918 101.338 16.918C98.4596 16.918 96.1939 14.2981 96.1939 11.1173C96.1939 7.93653 98.4669 5.35353 101.323 5.35353C102.843 5.35353 104.039 6.00297 104.806 7.11735L104.843 7.16901V1.33881H108.017ZM74.1719 1.33881V7.12473C74.9394 5.97345 76.1202 5.34615 77.6553 5.34615C80.5335 5.34615 82.7991 7.95129 82.7991 11.1321C82.7991 14.3128 80.5261 16.918 77.67 16.918C76.1867 16.918 74.9911 16.2907 74.2236 15.1763L74.1867 15.1247V16.6892H71.0059V1.33881H74.1719ZM38.9842 5.34602C41.9878 5.34602 44.438 7.715 44.438 10.7703C44.438 11.095 44.4232 11.4198 44.3863 11.7445L44.3716 11.9068H36.165C36.379 13.3459 37.486 14.2758 38.9694 14.2758C40.1871 14.2758 40.9546 13.7518 41.1465 12.9991L41.1613 12.9622H44.2683C43.914 15.3312 41.855 16.881 39.1392 16.9105H38.9104C35.7296 16.8736 33.213 14.2537 33.2425 11.0729C33.2499 7.8257 35.7665 5.34602 38.9842 5.34602ZM94.9025 5.32395C95.2272 5.33871 95.5298 5.37561 95.8324 5.44941L95.9579 5.46417V8.37189C95.5815 8.26119 95.2051 8.20953 94.814 8.20953C93.2937 8.20953 92.0834 9.10989 92.0465 11.1172V16.667H88.8657V5.56011H92.0465V6.81471C92.6738 5.89959 93.6701 5.33871 94.7623 5.32395H94.9025ZM51.7442 5.34602C54.556 5.34602 56.2681 7.22792 56.2829 10.298V16.6817H53.1021V10.7925C53.1021 9.3386 52.246 8.38658 50.925 8.38658C49.6187 8.38658 48.7627 9.3017 48.7479 10.726V16.6891H45.5671V5.56004H48.7479V6.99914C49.4416 5.95856 50.4748 5.34602 51.7442 5.34602ZM87.1313 5.56011V16.6596H83.9505V5.56011H87.1313ZM99.3674 11.0951C99.3527 12.5859 100.511 13.8257 101.995 13.8774H102.135C103.618 13.8405 104.814 12.6228 104.814 11.132C104.814 9.64123 103.618 8.41615 102.135 8.40139C100.652 8.36449 99.4043 9.56743 99.3674 11.0951ZM60.6593 11.0951C60.6446 12.5859 61.8032 13.8257 63.2866 13.8774H63.4268C64.9102 13.8405 66.1058 12.6228 66.1058 11.132C66.1058 9.64123 64.9102 8.41615 63.4268 8.40139C61.9287 8.36449 60.6815 9.56743 60.6593 11.0951ZM77.0354 8.3276H76.9247C75.4044 8.34236 74.1941 9.60434 74.2089 11.132C74.2089 12.6744 75.4266 13.8626 76.9985 13.8626C78.5188 13.8257 79.7291 12.5711 79.7143 11.0582C79.6922 9.56744 78.4966 8.3645 77.0354 8.3276ZM38.8441 7.95127C37.6485 7.95127 36.7186 8.54167 36.3275 9.80365L36.3127 9.87745H41.1171C41.0211 8.71879 40.0248 7.95127 38.8441 7.95127ZM85.5225 0.79994C86.5778 0.79994 87.4486 1.6634 87.4486 2.71874C87.4486 3.77408 86.6073 4.65968 85.5372 4.65968C84.4819 4.65968 83.611 3.81836 83.611 2.74088C83.6037 1.6634 84.445 0.79994 85.5225 0.79994Z" fill="white"/>
</svg>
