<svg width="32" height="32" viewBox="0 0 32 32" fill="none" xmlns="http://www.w3.org/2000/svg">
<path d="M13.0446 20.2696V16.6C13.0446 15.8637 12.4476 15.2667 11.7113 15.2667C10.9749 15.2667 10.3779 15.8637 10.3779 16.6V20.2696C10.3779 21.006 10.9749 21.603 11.7113 21.603C12.4476 21.603 13.0446 21.006 13.0446 20.2696Z" fill="white"/>
<path d="M21.6891 20.2696V16.6C21.6891 15.8637 21.0921 15.2667 20.3558 15.2667C19.6194 15.2667 19.0224 15.8637 19.0224 16.6V20.2696C19.0224 21.006 19.6194 21.603 20.3558 21.603C21.0921 21.603 21.6891 21.006 21.6891 20.2696Z" fill="white"/>
<path fill-rule="evenodd" clip-rule="evenodd" d="M16.0014 1.29822C14.1566 1.29822 12.6611 2.79373 12.6611 4.63855C12.6611 6.00944 13.4869 7.18745 14.6682 7.70222L14.667 10H4.33366V25.3334C4.33366 27.1743 5.82604 28.6667 7.66699 28.6667H24.3337C26.1746 28.6667 27.667 27.1743 27.667 25.3334V13.3334C27.667 11.4924 26.1746 10 24.3337 10H17.3337L17.3349 7.70208C18.5161 7.18724 19.3418 6.00932 19.3418 4.63855C19.3418 2.79373 17.8462 1.29822 16.0014 1.29822ZM7.00033 12.6667V25.3334C7.00033 25.7016 7.2988 26 7.66699 26H24.3337C24.7018 26 25.0003 25.7016 25.0003 25.3334V13.3334C25.0003 12.9652 24.7018 12.6667 24.3337 12.6667H7.00033Z" fill="white"/>
<path d="M0.334961 22.1052V14.1052H3.00163L3.00163 22.1052H0.334961Z" fill="white"/>
<path d="M29.0018 14.1052V22.1052H31.6684V14.1052H29.0018Z" fill="white"/>
</svg>
